# xmcd CD database file
# Copyright (C) 1993-1999 CDDB, Inc.
#
# Track frame offsets:
#	150
#	13357
#	23312
#	33996
#	45615
#	60051
#	70171
#	81362
#	93139
#	103390
#	116355
#	125975
#	137684
#	150447
#	163239
#	175363
#	186059
#	196553
#	206804
#	218930
#	230917
#
# Disc length: 3245
#
# Revision: 1
# Processed by: cddbd v1.5.1PL0 Copyright (c) Steve Scherf et al.
# Submitted via: CoolCD_Studio 1.3.1
#
DISCID=210cab15
DTITLE=Jim Reeves - Gentleman Jim - The Definitive Jim Reeves Colle
DTITLE=ction - CD1
DYEAR=2003
DGENRE=
TTITLE0=Distant Drums
TTITLE1=It Hurts So Much To See You Go
TTITLE2=He'll Have To Go
TTITLE3=Adios Amigo
TTITLE4=Guilty
TTITLE5=Blue Boy
TTITLE6=That's When I See The Blues
TTITLE7=I Missed Me
TTITLE8=I Heard A Heart Break Last Night
TTITLE9=Four Walls
TTITLE10=Billy Bayou
TTITLE11=Yonder Comes A Sucker
TTITLE12=Not Until The Next Time
TTITLE13=This World Is Not My Home
TTITLE14=Am I Losing You
TTITLE15=Home
TTITLE16=Losing Your Love
TTITLE17=Partners
TTITLE18=Mexican Joe
TTITLE19=According To My Heart
TTITLE20=Nobody's Fool
EXTD=
EXTT0=
EXTT1=
EXTT2=
EXTT3=
EXTT4=
EXTT5=
EXTT6=
EXTT7=
EXTT8=
EXTT9=
EXTT10=
EXTT11=
EXTT12=
EXTT13=
EXTT14=
EXTT15=
EXTT16=
EXTT17=
EXTT18=
EXTT19=
EXTT20=
PLAYORDER=
